<svg xmlns="http://www.w3.org/2000/svg" xmlns:xlink="http://www.w3.org/1999/xlink" id="Layer_1" width="100%" height="100%" x="0" y="0" enable-background="new" version="1.1" viewBox="5 5 40 40" xml:space="preserve"><g><line x1="36.377" x2="36.377" y1="20.5" y2="29.5" fill="none" stroke="#bababb" stroke-linecap="round" stroke-width="1.7"/><g><path fill="#bababb" d="M27.377,28.75c-0.043,0-0.086-0.011-0.125-0.033c-0.077-0.045-0.125-0.127-0.125-0.217v-7 c0-0.089,0.048-0.172,0.125-0.217c0.039-0.022,0.082-0.033,0.125-0.033c0.044,0,0.087,0.011,0.126,0.034l6,3.5 c0.077,0.045,0.124,0.127,0.124,0.216s-0.047,0.171-0.124,0.216l-6,3.5C27.464,28.738,27.421,28.75,27.377,28.75L27.377,28.75z"/></g><polygon fill="#bababb" points="14.888 23.5 13.623 26.5 29.877 26.5 29.877 23.5"/></g></svg>